<svg fill="none" xmlns="http://www.w3.org/2000/svg" viewBox="-15.2841 0 132.4622 17"><path d="M28.706 16.9966c2.5252 0 4.7353-1.2626 5.609-3.8119.1696-.5105-.0737-.8497-.5585-.8497h-.9474c-.4369 0-.7281.1936-.9234.6064-.7521 1.482-1.7971 2.0148-3.1077 2.0148-2.3317 0-3.7639-1.6276-3.7639-4.3464s1.4819-4.3464 3.7142-4.3464c1.3602 0 2.4773.5825 3.1814 1.9668.2193.4129.4848.6064.9234.6064h.9474c.4848 0 .7281-.3152.5585-.7777-1.0194-2.7686-3.3031-3.8359-5.633-3.8359-3.5206 0-6.1435 2.599-6.1435 6.3868 0 3.7879 2.5013 6.3868 6.1435 6.3868zM92.25 9.4928c.3152-2.0644 1.7235-3.351 3.6422-3.351 1.9188 0 3.351 1.3106 3.5206 3.351zm3.7399 7.5038c2.234 0 4.4681-1.0434 5.5611-3.399.267-.5585.024-.9474-.461-.9474h-.898c-.4365 0-.7038.1936-.9231.5825-.7281 1.2866-1.9907 1.8211-3.2773 1.8211-2.21 0-3.6422-1.5059-3.8119-3.9575h8.9123c.485 0 .802-.2672.802-.7777-.098-3.8119-2.5737-6.0939-5.9983-6.0939-3.4247 0-6.1435 2.4773-6.1435 6.3868s2.6468 6.3868 6.2411 6.3868zm-14.1321-6.0699h.8017c.4849 0 .7521-.2672.8258-.7778.4626-3.2807 2.3831-3.7159 4.4252-3.6182.4368.0205.7949-.3152.7949-.7538v-.7521c0-.4848-.2433-.7778-.7281-.8018-1.8074-.0685-3.4195.5517-4.3515 2.3077-.0514.096-.1953.0702-.2073-.0377l-.1508-1.3243c-.0479-.4848-.3152-.7281-.8017-.7281h-3.6663c-.4283 0-.7778.3478-.7778.7778v.4129c0 .4283.3478.7777.7778.7777h1.5059c.4283 0 .7778.3478.7778.7778v2.9621c0 .4283.3478.7778.7778.7778zm-3.2774 5.8283h7.5997c.4849 0 .7778-.2912.7778-.7778v-.4129c0-.4848-.2912-.7777-.7778-.7777h-1.9427c-.4848 0-.7778-.2913-.7778-.7778v-1.3363c0-.4849-.2912-.7778-.7778-.7778h-.8257c-.4849 0-.7778.2912-.7778.7778v1.3363c0 .4848-.2913.7778-.7778.7778H78.577c-.4848 0-.7778.2912-.7778.7777v.4129c0 .4849.2913.7778.7778.7778zM66.8519 9.4945c.3153-2.0644 1.7235-3.351 3.6423-3.351 1.9187 0 3.351 1.3106 3.5206 3.351zm3.7399 7.5038c2.234 0 4.468-1.0433 5.561-3.399.2673-.5585.024-.9474-.4608-.9474h-.8977c-.4369 0-.7041.1936-.9234.5825-.7281 1.2866-1.9908 1.8211-3.2774 1.8211-2.21 0-3.6422-1.5059-3.8118-3.9574h8.912c.4848 0 .8018-.2673.8018-.7778-.0977-3.8119-2.5732-6.0939-5.9979-6.0939-3.4247 0-6.1435 2.4773-6.1435 6.3868S67.001 17 70.5953 17zm-28.0929 0c3.6423 0 6.2412-2.6949 6.2412-6.3868 0-3.692-2.5989-6.3868-6.2412-6.3868-3.6422 0-6.2411 2.7446-6.2411 6.3868 0 .8498.1456 1.7971.5824 2.8405.2193.5105.6322.5825 1.0691.2672l.7041-.5105c.3649-.2673.4608-.5825.3392-1.0433-.1936-.6065-.2433-1.141-.2433-1.6019 0-2.5492 1.5299-4.2984 3.7879-4.2984s3.7879 1.7235 3.7879 4.3464-1.5059 4.3464-3.7399 4.3464c-.7778 0-1.5059-.1456-2.3797-.8018-.3649-.2912-.7041-.3392-1.093-.048l-.5345.3889c-.4369.3153-.4848.7521-.0737 1.093 1.2627 1.0194 2.7189 1.4083 4.0312 1.4083zm9.3232-.2433h.8018c.4283 0 .7778-.3478.7778-.7778v-5.8026c0-2.4515 1.3105-3.9095 3.351-3.9095 1.8451 0 2.9141 1.2147 2.9141 3.4487v6.2651c0 .4283.3478.7778.7778.7778h.8257c.4283 0 .7778-.3478.7778-.7778v-6.654c0-3.2773-1.6755-5.0985-4.5159-5.0985-1.9342 0-3.0769.7915-3.9301 1.8931-.0651.084-.197.0377-.197-.0668V.7777C53.3999.3478 53.0522 0 52.6239 0h-.8018c-.4283 0-.7778.3478-.7778.7778v15.1994c0 .4283.3478.7778.7778.7778z" fill="#39594d"/><g clip-path="url(#clip0_2207_90691)" transform="translate(0 -.5)"><path fill-rule="evenodd" clip-rule="evenodd" d="M5.5077 10.6219c.4576 0 1.3678-.0251 2.626-.5431 1.466-.6036 4.3829-1.6994 6.4871-2.8249 1.4716-.7872 2.1167-1.8284 2.1167-3.2305C16.7375 2.0775 15.16.5 13.2141.5H5.0609C2.266.5 0 2.7659 0 5.561c0 2.795 2.1215 5.0609 5.5077 5.0609z" fill="#39594d"/><path fill-rule="evenodd" clip-rule="evenodd" d="M6.8867 14.107a3.3895 3.3895 0 012.0903-3.1306l2.5676-1.0656c2.5971-1.0779 5.4557.8307 5.4557 3.6427 0 2.1785-1.7664 3.9444-3.945 3.9438l-2.7799-.0007c-1.8717-.0005-3.3887-1.5179-3.3887-3.3896z" fill="#d18ee2"/><path d="M2.9175 11.2891C1.3061 11.2891 0 12.5952 0 14.2065v.3779c0 1.6112 1.3062 2.9174 2.9174 2.9174 1.6113 0 2.9175-1.3062 2.9175-2.9174v-.3779c0-1.6113-1.3062-2.9174-2.9174-2.9174z" fill="#ff7759"/></g><defs><clipPath id="clip0_2207_90691"><path fill="#fff" transform="translate(0 .5)" d="M0 0h17v17H0z"/></clipPath></defs></svg>
