<?xml version="1.0" encoding="utf-8"?>
<!-- Generator: Adobe Illustrator 16.0.0, SVG Export Plug-In . SVG Version: 6.00 Build 0)  -->
<!DOCTYPE svg PUBLIC "-//W3C//DTD SVG 1.1//EN" "http://www.w3.org/Graphics/SVG/1.1/DTD/svg11.dtd">
<svg version="1.1" id="Layer_1" xmlns="http://www.w3.org/2000/svg" xmlns:xlink="http://www.w3.org/1999/xlink" x="0px" y="0px"
	 width="2000px" height="720px" viewBox="0 0 2000 720" enable-background="new 0 0 2000 720" xml:space="preserve">
<g>
	<defs>
		<rect id="SVGID_1_" width="2000" height="720"/>
	</defs>
	<clipPath id="SVGID_2_">
		<use xlink:href="#SVGID_1_"  overflow="visible"/>
	</clipPath>
	<path clip-path="url(#SVGID_2_)" d="M392.551,211.12c9.423,0.914,19.049,2.692,28.928,5.384l9.41-195.069
		c-5.384-1.791-12.33-3.137-20.851-4.038c-8.534-0.889-17.284-1.347-26.237-1.347c-41.259,0-77.591,10.845-108.97,32.523
		c-31.405,21.664-55.622,49.665-72.651,83.978h-2.692V35.683H12.393v669.187h195.171V361.387c0-13.41,2.693-29.055,8.077-46.948
		c5.372-17.88,14.121-34.427,26.224-49.653c12.114-15.188,28.255-28.166,48.434-38.91c20.178-10.718,45.068-16.102,74.67-16.102
		C373.922,209.773,383.128,210.244,392.551,211.12"/>
	<path clip-path="url(#SVGID_2_)" d="M1962.98,216.184c-16.445-44.371-39.291-82.1-68.589-113.187
		c-29.284-31.062-64.371-54.796-105.186-71.241c-40.84-16.407-85.681-24.624-134.495-24.624c-50.605,0-97.668,8.445-141.149,25.297
		c-1.219,0.473-2.432,0.953-3.642,1.436l-184.514,478.521c19.052,43.25,45.162,79.669,78.296,109.264
		c33.297,29.754,72.118,52.396,116.514,67.915c44.383,15.518,91.433,23.303,141.15,23.303c67.457,0,126.71-12.217,177.772-36.612
		c51.037-24.407,92.081-59.266,123.168-104.538l-151.804-95.865c-15.1,20.421-34.618,37.069-58.581,49.934
		c-23.976,12.876-53.271,19.302-87.89,19.302c-19.531,0-38.401-3.098-56.586-9.321c-18.212-6.196-34.632-14.857-49.273-25.969
		c-14.654-11.087-26.63-24.167-35.951-39.278c-9.321-15.087-14.883-31.964-16.647-50.605h480.709
		c0.819-7.59,1.279-15.576,1.324-23.979v-29.866C1987.423,310.047,1979.202,260.09,1962.98,216.184 M1505.574,284.098
		c0.876-16.852,5.32-33.055,13.32-48.599c7.988-15.531,18.644-29.068,31.951-40.612c13.321-11.53,28.84-20.648,46.605-27.303
		c17.754-6.654,37.285-9.981,58.594-9.981c43.48,0,76.105,12.432,97.871,37.284c21.741,24.852,32.624,54.593,32.624,89.211H1505.574
		z"/>
	<polygon clip-path="url(#SVGID_2_)" points="622.576,19.843 622.571,19.854 622.58,19.854 619.471,27.896 358.448,704.866 
		541.314,704.866 699.023,219.167 702.884,219.167 861.559,704.866 1046.601,704.866 787.287,19.843 	"/>
	<polygon clip-path="url(#SVGID_2_)" points="619.405,19.854 354.631,704.864 357.753,704.864 619.471,27.895 622.572,19.854 	"/>
	<polygon clip-path="url(#SVGID_2_)" points="622.571,19.854 619.471,27.895 622.579,19.854 	"/>
	<polygon clip-path="url(#SVGID_2_)" points="622.571,19.854 619.471,27.895 622.579,19.854 	"/>
	<polygon clip-path="url(#SVGID_2_)" points="790.843,19.843 788.031,19.843 1047.332,704.866 1049.902,704.866 	"/>
	<polygon clip-path="url(#SVGID_2_)" points="787.287,19.843 1046.601,704.866 1047.332,704.866 788.031,19.843 	"/>
	<polygon clip-path="url(#SVGID_2_)" points="787.287,19.843 1046.601,704.866 1047.332,704.866 788.031,19.843 	"/>
	<polygon clip-path="url(#SVGID_2_)" points="1153.854,512.387 1240.861,259.734 1323.226,19.844 991.421,19.844 1019.265,104.777 	
		"/>
</g>
</svg>
