<svg width="67" height="28" viewBox="0 0 67 28" fill="none" xmlns="http://www.w3.org/2000/svg">
<path d="M28.0216 6.22217C23.4846 6.22217 20.0062 9.8518 20.0062 14.2376C20.0062 17.6728 22.1235 20.6327 25.1914 21.7777L26.2716 19.4444C24.1759 18.7098 22.8148 16.6574 22.8148 14.2376C22.8148 11.2345 24.9537 8.74994 28.0216 8.74994C31.1111 8.74994 33.2284 11.2345 33.2284 14.2376C33.2284 16.679 31.8457 18.7098 29.7716 19.4444L30.8518 21.7777C33.9414 20.6327 36.037 17.6728 36.037 14.2376C36.037 9.8518 32.5802 6.22217 28.0216 6.22217ZM41.2222 10.3919C41.2222 9.29007 42.0648 8.46908 43.4043 8.46908C45.6728 8.46908 45.9321 10.716 45.9321 10.716L48.4815 10.0895C48.4815 10.0895 48.071 6.22217 43.642 6.22217C40.6389 6.22217 38.5648 7.97217 38.5648 10.824C38.5648 16.2253 45.9537 13.9999 45.9537 17.4135C45.9537 18.6234 45.1543 19.5092 43.642 19.5092C41.0278 19.5092 40.8765 16.9598 40.8765 16.9598L38.1759 17.5864C38.1759 17.5864 38.4784 21.7777 43.4691 21.7777C46.7963 21.7777 48.7191 19.8765 48.7191 17.003C48.7191 11.3425 41.2222 13.6327 41.2222 10.3919ZM54.0123 10.3919C54.0123 9.29007 54.8549 8.46908 56.1944 8.46908C58.463 8.46908 58.7222 10.716 58.7222 10.716L61.2716 10.0895C61.2716 10.0895 60.8611 6.22217 56.4321 6.22217C53.429 6.22217 51.3549 7.97217 51.3549 10.824C51.3549 16.2253 58.7438 13.9999 58.7438 17.4135C58.7438 18.6234 57.9444 19.5092 56.4321 19.5092C53.8179 19.5092 53.6667 16.9598 53.6667 16.9598L50.966 17.5864C50.966 17.5864 51.2685 21.7777 56.2593 21.7777C59.5864 21.7777 61.5093 19.8765 61.5093 17.003C61.5093 11.3425 54.0123 13.6327 54.0123 10.3919ZM17.1327 10.8456C17.1327 8.05859 14.9938 6.43822 12.3148 6.43822H7.77777V21.5617H10.5V15.2098H11.7747L14.9506 21.5617H17.8241L14.4753 14.8425C16.0741 14.216 17.1327 12.8765 17.1327 10.8456ZM10.5 8.77155H12.0988C13.3518 8.77155 14.3241 9.57093 14.3241 10.9104C14.3241 12.2067 13.3518 13.0061 12.0988 13.0061H10.5V8.77155Z" fill="black"/>
</svg>
